<!--?xml version="1.0" encoding="UTF-8" standalone="no"?-->
<!-- Created with Inkscape (http://www.inkscape.org/) -->

<svg xmlns:dc="http://purl.org/dc/elements/1.1/" xmlns:cc="http://creativecommons.org/ns#" xmlns:rdf="http://www.w3.org/1999/02/22-rdf-syntax-ns#" xmlns:svg="http://www.w3.org/2000/svg" xmlns="http://www.w3.org/2000/svg" xmlns:sodipodi="http://sodipodi.sourceforge.net/DTD/sodipodi-0.dtd" xmlns:inkscape="http://www.inkscape.org/namespaces/inkscape" width="210mm" height="297mm" viewBox="0 0 210 297" version="1.1" id="svg8" sodipodi:docname="aaaaaaaaaa.svg" inkscape:version="0.92.2 (5c3e80d, 2017-08-06)" class="" style="">
  <defs id="defs2"></defs>
  <sodipodi:namedview id="base" pagecolor="#ffffff" bordercolor="#666666" borderopacity="1.0" inkscape:pageopacity="0.0" inkscape:pageshadow="2" inkscape:zoom="1.4" inkscape:cx="442.85157" inkscape:cy="921.29245" inkscape:document-units="mm" inkscape:current-layer="layer1" showgrid="false" inkscape:window-width="1920" inkscape:window-height="986" inkscape:window-x="-11" inkscape:window-y="-11" inkscape:window-maximized="1"></sodipodi:namedview>
  <metadata id="metadata5">
    <rdf:rdf>
      <cc:work rdf:about="">
        <dc:format>image/svg+xml</dc:format>
        <dc:type rdf:resource="http://purl.org/dc/dcmitype/StillImage"></dc:type>
        <dc:title></dc:title>
      </cc:work>
    </rdf:rdf>
  </metadata>
  <g inkscape:label="Layer 1" inkscape:groupmode="layer" id="layer1">
    <path style="fill:none;stroke:#000000;stroke-width:0.26458332px;stroke-linecap:butt;stroke-linejoin:miter;stroke-opacity:1" d="m 38.931548,25.802083 c 0,1.153143 0.06923,0.625464 -0.377976,2.07887 -0.117171,0.380801 -0.325321,0.738999 -0.377978,1.133927 -0.07493,0.561991 0.08018,1.139627 0,1.700892 -0.110197,0.771388 -0.477647,1.493777 -0.566963,2.267858 -0.101092,0.876131 0,1.76389 0,2.645833 0,0.755952 0,1.511906 0,2.267858 0,0.503967 0.03865,1.00942 0,1.511906 -0.416562,5.415311 -0.257392,1.389216 -0.944941,6.614583 -0.173363,1.317545 -0.209695,2.650543 -0.377975,3.96875 -0.209852,1.643824 -0.506646,3.275383 -0.755955,4.913688 -0.191664,1.259517 -0.141636,2.578841 -0.566962,3.779763 -3.71657,10.493841 -1.997152,0.913321 -3.212798,8.693452 -0.137533,0.880218 -0.106453,1.79732 -0.377976,2.645833 0.325236,1.320305 -1.147263,1.69776 -1.511906,2.645833 -0.236098,0.61386 -0.386281,1.257488 -0.566962,1.889882 -0.07136,0.249746 -0.165474,0.497279 -0.18899,0.755952 -0.03992,0.43916 0.03992,0.883756 0,1.322916 -0.02352,0.258673 -0.146288,0.499748 -0.188989,0.755952 -0.02072,0.12428 0.02471,0.254431 0,0.377978 -0.208907,1.044546 -0.188987,0.235628 -0.188987,0.755952 0,0.225057 0,0.467387 0,0.377976 0,-0.577186 -0.03984,-0.25845 0.188987,-0.944941" id="path3740" inkscape:connector-curvature="0" class="QHzMXOXz_0"></path>
    <path style="fill:none;stroke:#000000;stroke-width:0.26458332px;stroke-linecap:butt;stroke-linejoin:miter;stroke-opacity:1" d="m 61.799107,25.991071 c -0.07814,0.625097 0.07814,1.264785 0,1.889882 -0.02471,0.197672 -0.153353,0.370967 -0.188989,0.566962 -0.09085,0.4997 -0.08257,1.015288 -0.188987,1.511906 -0.08348,0.389578 -0.251984,0.755951 -0.377976,1.133927 -0.188989,0.818949 -0.420904,1.629164 -0.566965,2.456847 -0.04379,0.24815 0,0.503968 0,0.755952 0,0.566965 0,1.13393 0,1.700892 0,1.637898 0,3.275793 0,4.913691 0,3.086806 0,6.17361 0,9.260416 0,1.259922 0,2.519842 0,3.779764 0,0.503968 0.03352,1.009052 0,1.511903 -0.26026,3.903901 -0.188989,-1.478137 -0.188989,2.834823 0,2.20486 0,4.40972 0,6.614583 0,0.692954 0,1.385911 0,2.078868 0,0.314981 0.02617,0.631047 0,0.944941 -0.03699,0.44391 -0.109302,0.884653 -0.188987,1.322917 -0.460941,2.535166 0.148029,-1.109745 -0.566965,1.511903 -0.117205,0.429755 -0.109304,0.884653 -0.188989,1.322916 -0.04646,0.255551 -0.156771,0.498221 -0.188987,0.755955 -0.03126,0.250036 0.03564,0.506499 0,0.755951 -0.02817,0.19721 -0.14992,0.371623 -0.188989,0.566965 -0.02471,0.123545 0,0.251984 0,0.377976 -0.06299,0.188987 -0.140671,0.3737 -0.188986,0.566965 -0.01529,0.06111 0,0.125992 0,0.188987 0,0.48655 0.04151,0.861914 -0.18899,1.322916 -0.03984,0.07969 -0.160813,0.104471 -0.188986,0.18899 -0.03984,0.119525 0,0.251984 0,0.377975 -0.125992,0.188987 -0.2764,0.363808 -0.377979,0.566965 -0.06262,0.125246 0.0528,0.597557 0,0.755952 -0.456305,1.36892 0.05449,-0.29796 -0.377975,0.566965 -0.02817,0.05634 -0.063,0.188987 0,0.188987 0.720942,0 0.533426,-1.277133 0.566965,-1.511904" id="path3742" inkscape:connector-curvature="0" class="QHzMXOXz_1"></path>
    <path style="fill:none;stroke:#000000;stroke-width:0.26458332px;stroke-linecap:butt;stroke-linejoin:miter;stroke-opacity:1" d="m 40.821427,55.473213 c 0.377978,-0.125992 0.740928,-0.312476 1.13393,-0.377976 0.372832,-0.06214 0.758264,0.04174 1.133927,0 0.197993,-0.02199 0.369293,-0.16428 0.566965,-0.188989 0.312547,-0.03907 0.631886,0.03478 0.944941,0 0.528619,-0.05873 1.241566,-0.370107 1.700893,-0.566962 0.129474,-0.05549 0.241318,-0.154824 0.377976,-0.18899 0.122229,-0.03056 0.251983,0 0.377975,0 0.440973,0 0.881947,0 1.322917,0 0.503968,0 1.007938,0 1.511906,0 0.377976,0 0.764953,-0.08199 1.133927,0 0.221729,0.04927 0.358196,0.288505 0.566965,0.377976 0.238739,0.102317 0.498825,0.152257 0.755952,0.188989 0.187089,0.02673 0.377976,0 0.566965,0 0.063,0 0.129225,-0.01992 0.188989,0 0.133633,0.04455 0.241319,0.154824 0.377976,0.188987 0.244459,0.06112 0.51149,-0.06111 0.755952,0 0.136657,0.03417 0.241318,0.154824 0.377975,0.188989 0.12223,0.03056 0.251984,0 0.377976,0 0.377976,0 0.755955,0 1.13393,0" id="path3744" inkscape:connector-curvature="0" class="QHzMXOXz_2"></path>
    <path style="fill:none;stroke:#000000;stroke-width:0.26458332px;stroke-linecap:butt;stroke-linejoin:miter;stroke-opacity:1" d="m 74.461308,49.803571 c 1.511906,0 3.023809,0 4.535715,0 0.0231,0 1.626603,0.02477 1.700893,0 0.08452,-0.02817 0.102557,-0.167381 0.188989,-0.18899 0.183343,-0.04584 0.377976,0 0.566962,0 0.503971,-0.06299 1.030079,-0.02838 1.511906,-0.188986 0.298815,-0.09961 0.468119,-0.439039 0.755952,-0.566965 0.293534,-0.130458 0.629959,-0.125992 0.944941,-0.188987 0.314981,-0.063 0.626202,-0.149148 0.94494,-0.188989 0.187529,-0.02344 0.38362,0.04584 0.566965,0 0.329116,-0.08228 0.61875,-0.284779 0.944939,-0.377976 0.121144,-0.03461 0.251986,0 0.377978,0 0.251984,-0.063 0.512749,-0.09779 0.755952,-0.188989 0.263789,-0.09892 0.503967,-0.251984 0.755951,-0.377976 0.251984,-0.125992 0.503968,-0.251984 0.755952,-0.377976 0.125995,-0.063 0.241318,-0.154823 0.377978,-0.188989 0.84945,-0.212362 -0.180755,0.468355 1.133928,-0.188987 0.05635,-0.02817 -0.04454,-0.144443 0,-0.188989 0.04454,-0.04454 0.125992,0 0.188989,0 0.063,0 0.125992,0 0.188987,0 0.188989,0 0.377975,0 0.566965,0 0.629959,0 1.259919,0 1.889881,0 0.188987,0 0.377976,0 0.566963,0 0.125992,0 0.265287,0.05635 0.377976,0 0.159369,-0.07968 0.229721,-0.279138 0.377978,-0.377976 0.0823,-0.05486 0.467204,0.04988 0.566962,0 0.07968,-0.03984 0.125992,-0.125991 0.18899,-0.188986 0.06299,-0.063 0.13957,-0.114861 0.188986,-0.188989 0.07814,-0.117205 0.154826,-0.241319 0.188989,-0.377976 0.04584,-0.183346 0,-0.377976 0,-0.566965 0,-0.377976 0,-0.755952 0,-1.133928 0,-0.566965 0,-1.13393 0,-1.700892 0,-0.125995 0,-0.251987 0,-0.377979 0,-0.125991 0.03056,-0.255743 0,-0.377975 -0.129246,-0.516986 -0.265744,-0.30412 -0.566965,-0.755952 -0.03494,-0.05242 0.02817,-0.132644 0,-0.188989 -0.03984,-0.07969 -0.135532,-0.117716 -0.188986,-0.188987 -0.125992,-0.188989 -0.251984,-0.377976 -0.377976,-0.566965 -0.063,-0.06299 -0.135535,-0.117716 -0.188989,-0.188986 -0.136282,-0.181711 -0.236085,-0.389602 -0.377976,-0.566965 -0.111308,-0.139137 -0.251984,-0.251984 -0.377976,-0.377976 -0.063,-0.063 -0.143153,-0.112596 -0.188989,-0.188989 -0.289893,-0.483159 -0.443405,-1.043083 -0.755952,-1.511904 -0.213709,-0.320564 -0.919546,-0.766289 -1.13393,-0.944941 -0.273761,-0.228136 -0.470863,-0.542136 -0.755951,-0.755954 -0.112692,-0.08452 -0.260771,-0.11085 -0.377976,-0.188986 -0.07413,-0.04942 -0.114861,-0.139571 -0.188989,-0.18899 -0.149546,-0.0997 -0.967079,-0.511347 -1.133928,-0.566962 -0.113136,-0.03771 -1.508127,0 -1.511906,0 -0.45426,0 0.07968,-0.01992 -0.755951,0.188987 -0.06111,0.01527 -0.132644,-0.02817 -0.188987,0 -0.456959,0.228478 -0.676971,0.527473 -1.13393,0.755951 -0.05635,0.02817 -0.132644,-0.02817 -0.188987,0 -0.203157,0.101579 -0.374353,0.257596 -0.566965,0.377979 -0.311494,0.19468 -0.651078,0.346567 -0.94494,0.566962 -0.213815,0.160361 -0.349478,0.411618 -0.566965,0.566965 -0.229251,0.163751 -0.54205,0.19463 -0.755952,0.377976 -0.239152,0.204986 -0.327814,0.550966 -0.566965,0.755952 -0.213902,0.183345 -0.533569,0.205012 -0.755952,0.377978 -0.351615,0.273479 -0.616574,0.643938 -0.944941,0.944938 -0.419025,0.384109 -1.827358,1.491541 -2.267857,2.078871 -0.169034,0.22538 -0.228661,0.517049 -0.377976,0.755952 -0.166939,0.267102 -0.413996,0.48061 -0.566965,0.755951 -0.636315,1.145368 -0.171757,0.647015 -0.566962,1.700893 -0.09892,0.263789 -0.288888,0.488683 -0.377976,0.755954 -0.203158,0.609468 -0.222163,1.266627 -0.377979,1.889879 -0.04832,0.193265 -0.13426,0.37542 -0.188986,0.566965 -0.246512,0.862796 -0.455692,1.755643 -0.566965,2.645833 -0.01564,0.125019 0,0.251984 0,0.377976 0,0.251984 0,0.503968 0,0.755954 0,0.566963 0,1.133928 0,1.700893 0,0.503968 0,1.007935 0,1.511903 0,0.188989 0,0.377976 0,0.566965 0,0.188989 -0.05976,0.387676 0,0.566965 0.07183,0.21548 0.276399,0.363808 0.377976,0.566963 0.02817,0.05635 0,0.125992 0,0.188989 0,0.251984 0,0.503968 0,0.755951 0,0.18899 -0.04584,0.38362 0,0.566966 0.242736,0.970941 0.497588,0.995174 0.944941,1.889881 0.535373,1.606119 -0.211294,-0.35216 0.566965,0.944941 0.648692,1.081154 -0.499907,0.06706 0.755951,1.322917 0.16061,0.160607 0.389602,0.236085 0.566965,0.377975 0.27827,0.222616 0.470866,0.542137 0.755952,0.755952 0.112691,0.08452 0.265287,0.104471 0.377976,0.188989 0.213817,0.160362 0.344582,0.418709 0.566965,0.566963 1.319093,0.879395 -0.929156,-0.838608 0.94494,0.566965 0.407723,0.305792 -0.03333,0.251251 0.755952,0.566965 0.175472,0.07019 0.377976,0 0.566965,0 0.188987,0 0.377976,0 0.566965,0 0.251984,0 0.507397,-0.04143 0.755952,0 0.51241,0.0854 1.010729,0.241292 1.511903,0.377976 0.192193,0.05242 0.369292,0.164279 0.566965,0.188986 0.562586,0.07032 1.139627,-0.08018 1.700893,0 0.197209,0.02817 0.369292,0.16428 0.566965,0.188989 0.375057,0.04688 0.755951,0 1.133927,0 0.692957,0 1.385914,0 2.078871,0" id="path3746" inkscape:connector-curvature="0" class="QHzMXOXz_3"></path>
    <path style="fill:none;stroke:#000000;stroke-width:0.26458332px;stroke-linecap:butt;stroke-linejoin:miter;stroke-opacity:1" d="m 118.49553,33.361606 c 0.063,0.440973 0.0888,0.888875 0.18899,1.322916 0.0896,0.388221 0.29984,0.743244 0.37798,1.13393 0.11187,0.559375 0.12233,1.134346 0.18899,1.700893 0.0593,0.504412 0.16081,1.004795 0.18898,1.511903 0.0349,0.628991 0,1.259922 0,1.889882 0,0.503968 0,1.007935 0,1.511906 0,3.716766 0,7.433532 0,11.150295 0,1.322917 0,2.645834 0,3.96875 0,0.377979 0.0314,0.757259 0,1.13393 -0.0318,0.381866 -0.1596,0.751867 -0.18898,1.133928 -0.0338,0.439674 0,0.881946 0,1.322916 0,0.377976 0,0.755955 0,1.13393 0,1.322917 0,2.645834 0,3.96875 0,0.944941 0,1.889879 0,2.83482 0,0.566965 0,1.13393 0,1.700893 0,0.188989 0.0234,0.379436 0,0.566965 -0.0399,0.318738 -0.13618,0.628094 -0.18899,0.944941 -0.0104,0.06214 0.0123,0.127214 0,0.188989 -0.0509,0.254693 -0.15226,0.498821 -0.18899,0.755951 -0.0267,0.18709 0,0.377976 0,0.566966 0,0.44097 0,0.881943 0,1.322916 0,0.125992 0,0.251984 0,0.377976 0,0.063 0.0282,0.132641 0,0.188987 -0.0398,0.07968 -0.18899,0.278079 -0.18899,0.188989 0,-0.383191 0.12599,-0.755952 0.18899,-1.13393" id="path3748" inkscape:connector-curvature="0" class="QHzMXOXz_4"></path>
    <path style="fill:none;stroke:#000000;stroke-width:0.26458332px;stroke-linecap:butt;stroke-linejoin:miter;stroke-opacity:1" d="m 141.55208,27.691963 c 0,4.346726 0,8.693452 0,13.04018 0,0.338043 0,3.263133 0,3.401785 0,0.251984 0.0333,0.506177 0,0.755952 -0.0931,0.69814 -0.29061,1.37999 -0.37797,2.078868 -0.0391,0.31255 0.0224,0.630761 0,0.944941 -0.23073,3.2302 -0.18899,0.366048 -0.18899,2.834822 0,0.566965 0.13132,1.149348 0,1.700893 -0.18969,0.796679 -0.63313,1.510593 -0.94494,2.267857 -0.12917,0.31369 -0.3069,0.613228 -0.37798,0.944941 -0.11953,0.55779 -0.0771,1.141516 -0.18899,1.700893 -0.0781,0.390683 -0.31247,0.740926 -0.37797,1.133927 -0.0621,0.372835 0.029,0.757066 0,1.13393 -0.008,0.09821 -0.31845,2.263381 -0.37798,2.456844 -0.14109,0.45855 -0.47287,0.852469 -0.56696,1.322917 -0.005,0.02318 0.005,2.964302 0,3.023809 -0.0413,0.536871 -0.51469,2.117045 -0.56697,2.456847 -0.0479,0.311316 0,0.629959 0,0.944941 0,0.251983 0,0.503967 0,0.755951 0,1.700893 0,3.401785 0,5.102678" id="path3750" inkscape:connector-curvature="0" class="QHzMXOXz_5"></path>
    <path style="fill:none;stroke:#000000;stroke-width:0.26458332px;stroke-linecap:butt;stroke-linejoin:miter;stroke-opacity:1" d="m 166.87649,31.471727 c 0.53056,1.394759 -0.63991,2.31427 -0.75596,3.590771 -0.0399,0.439164 0.0671,0.887074 0,1.322917 -0.59566,3.871799 -0.23574,-1.849049 -0.56696,2.456847 -0.029,0.376862 0.0342,0.757504 0,1.133927 -0.0291,0.3199 -0.13153,0.628904 -0.18899,0.944941 -0.0685,0.37701 -0.0902,0.763677 -0.18899,1.13393 -0.15399,0.577453 -0.43258,1.118563 -0.56696,1.700892 -0.0567,0.245531 0.0209,0.504839 0,0.755952 -0.0422,0.506135 -0.0826,1.015288 -0.18899,1.511906 -0.0835,0.389578 -0.31739,0.740137 -0.37798,1.133927 -0.0248,0.161309 0.0213,2.201588 0,2.456844 -0.0318,0.381868 -0.15429,0.752314 -0.18898,1.13393 -0.0173,0.190564 0.0208,1.988786 0,2.078869 -0.10788,0.467476 -0.42911,0.863385 -0.56697,1.322916 -0.0543,0.181018 0.0209,0.379132 0,0.566965 -0.0423,0.380847 -0.15086,0.752639 -0.18899,1.133928 -0.0251,0.250735 0,0.503968 0,0.755954 0,0.314979 0,0.62996 0,0.944938 0,0.944941 0,1.889882 0,2.834823 0,0.314981 0,0.629959 0,0.944941 0,0.188986 0.0311,0.380547 0,0.566965 -0.11926,0.715571 -0.31183,0.396859 -0.18898,1.133927 0.0328,0.196501 0.12599,0.377976 0.18898,0.566965 0.28515,0.855435 0.1868,0.726131 0.94494,1.700893 -0.48941,1.655021 0.55919,0.321005 0.75596,0.566965 0.22946,0.286832 0.30722,0.685199 0.56696,0.944938 0.19921,0.199213 0.51135,0.238202 0.75595,0.377978 0.19721,0.112689 0.3896,0.236085 0.56697,0.377976 0.45352,0.362818 0.83966,0.81176 1.32291,1.133928 0.28227,0.188179 0.62996,0.251983 0.94495,0.377975 0.31498,0.125992 0.6231,0.270698 0.94494,0.377976 0.0598,0.01992 0.12599,0 0.18898,0 0.31498,0 0.62997,0 0.94494,0 1.00794,0 2.01588,0 3.02381,0 0.89116,0 2.73215,0.09722 3.59078,-0.188986 0.48182,-0.16061 0.86864,-0.528818 1.32291,-0.755952 4.5503,-2.275149 1.07431,-0.472681 5.48066,-2.267858 3.14321,-1.28057 1.65523,-0.73855 4.15774,-2.267857 0.55342,-0.338204 1.1315,-0.634365 1.70089,-0.944941 0.12366,-0.06745 0.26077,-0.110852 0.37798,-0.188989 0.0741,-0.04942 0.12599,-0.125992 0.18898,-0.188987 0.063,-0.063 0.16082,-0.10447 0.18899,-0.188989 0.0398,-0.119525 -0.0207,-0.253698 0,-0.377976 0.0427,-0.256204 0.11763,-0.506206 0.18899,-0.755951 0.0547,-0.191548 0.15624,-0.370465 0.18899,-0.566965 0.0311,-0.186418 0,-0.377976 0,-0.566965 0,-0.188987 0,-0.377976 0,-0.566963 0,-0.629962 0,-1.259922 0,-1.889881 0,-0.566966 -0.0985,-1.142556 0,-1.700893 0.0935,-0.530048 0.46777,-0.982885 0.56696,-1.511906 0.0929,-0.495334 0,-1.007935 0,-1.511903 0,-0.987557 0,-2.682592 0,-3.590774 0,-0.62996 0,-1.259922 0,-1.889882 0,-0.503968 0.0988,-1.017722 0,-1.511903 -0.21798,-1.089904 -1.03336,-1.877737 -1.5119,-2.834823 -0.55779,-1.115578 -0.15646,-0.838565 -0.94494,-1.889881 -0.16036,-0.213815 -0.37798,-0.377976 -0.56697,-0.566963 -0.47166,-0.471659 -0.70029,-0.672473 -1.13393,-1.322916 -0.2326,-0.348904 -0.33436,-0.78503 -0.56696,-1.13393 -0.51617,-0.774248 0.0999,0.193354 -0.37798,-0.188987 -0.27827,-0.222618 -0.48776,-0.52129 -0.75595,-0.755954 -0.25198,-0.188987 -0.50397,-0.377976 -0.75595,-0.566963 -0.063,0 -0.13657,0.03494 -0.18899,0 -0.33562,-0.22375 -0.60931,-0.532204 -0.94494,-0.755954 -0.0524,-0.03494 -0.13859,0.0378 -0.18899,0 -0.4989,-0.374176 -0.83594,-0.933339 -1.32291,-1.322917 -0.0492,-0.03935 -0.12923,0.01992 -0.18899,0 -0.13364,-0.04454 -0.24434,-0.144441 -0.37798,-0.188986 -0.0598,-0.01992 -0.12599,0 -0.18899,0 -0.12599,0 -0.25198,0 -0.37797,0 -0.57752,0 -0.9419,0.03901 -1.51191,-0.188989 -0.16543,-0.06618 -0.21861,-0.298292 -0.37797,-0.377976 -0.0563,-0.02817 -0.14445,0.04454 -0.18899,0 -0.11577,-0.115769 -0.16089,-0.494602 -0.37798,-0.566965 -0.0865,-0.02884 -0.83945,0 -0.94494,0 -0.31498,0 -0.62996,0 -0.94494,0 -0.12599,0 -0.25198,0 -0.37797,0 -0.063,0 -0.12788,-0.01527 -0.18899,0 -0.19327,0.04831 -0.3737,0.140673 -0.56697,0.188989 -0.0611,0.01527 -0.12922,-0.01992 -0.18899,0 -0.13363,0.04454 -0.24434,0.144444 -0.37797,0.188987 -0.10497,0.03499 -1.25795,0 -1.32292,0 -0.81895,0 -1.6379,0 -2.45684,0 -0.88195,0 -1.76389,0 -2.64584,0 -0.31498,0 -0.62996,0 -0.94494,0 -0.063,0 -0.12599,0 -0.18899,0 -0.063,0 -0.13264,-0.02817 -0.18898,0 -0.0797,0.03984 -0.10931,0.149148 -0.18899,0.188989 -0.11269,0.05635 -0.26529,-0.05635 -0.37798,0 -0.0797,0.03984 -0.1093,0.149145 -0.18899,0.188989 -0.0563,0.02817 -0.13264,-0.02817 -0.18898,0 -0.86493,0.432461 0.80195,-0.07833 -0.56697,0.377976 -0.0598,0.01992 -0.12599,0 -0.18899,0 -0.12599,0 -0.25198,0 -0.37797,0 -0.063,0 -0.12599,0 -0.18899,0 -0.063,0 -0.18899,0.06299 -0.18899,0 0,-0.063 0.12599,0 0.18899,0" id="path3752" inkscape:connector-curvature="0" class="QHzMXOXz_6"></path>
  </g>
<style>.QHzMXOXz_0{stroke-dasharray:57 59;stroke-dashoffset:58;animation:QHzMXOXz_draw_0 7200ms linear 0ms infinite,QHzMXOXz_fade 7200ms linear 0ms infinite;}.QHzMXOXz_1{stroke-dasharray:59 61;stroke-dashoffset:60;animation:QHzMXOXz_draw_1 7200ms linear 0ms infinite,QHzMXOXz_fade 7200ms linear 0ms infinite;}.QHzMXOXz_2{stroke-dasharray:16 18;stroke-dashoffset:17;animation:QHzMXOXz_draw_2 7200ms linear 0ms infinite,QHzMXOXz_fade 7200ms linear 0ms infinite;}.QHzMXOXz_3{stroke-dasharray:90 92;stroke-dashoffset:91;animation:QHzMXOXz_draw_3 7200ms linear 0ms infinite,QHzMXOXz_fade 7200ms linear 0ms infinite;}.QHzMXOXz_4{stroke-dasharray:44 46;stroke-dashoffset:45;animation:QHzMXOXz_draw_4 7200ms linear 0ms infinite,QHzMXOXz_fade 7200ms linear 0ms infinite;}.QHzMXOXz_5{stroke-dasharray:49 51;stroke-dashoffset:50;animation:QHzMXOXz_draw_5 7200ms linear 0ms infinite,QHzMXOXz_fade 7200ms linear 0ms infinite;}.QHzMXOXz_6{stroke-dasharray:119 121;stroke-dashoffset:120;animation:QHzMXOXz_draw_6 7200ms linear 0ms infinite,QHzMXOXz_fade 7200ms linear 0ms infinite;}@keyframes QHzMXOXz_draw{100%{stroke-dashoffset:0;}}@keyframes QHzMXOXz_fade{0%{stroke-opacity:1;}94.44444444444444%{stroke-opacity:1;}100%{stroke-opacity:0;}}@keyframes QHzMXOXz_draw_0{11.11111111111111%{stroke-dashoffset: 58}51.388888888888886%{ stroke-dashoffset: 0;}100%{ stroke-dashoffset: 0;}}@keyframes QHzMXOXz_draw_1{11.342592592592592%{stroke-dashoffset: 60}51.620370370370374%{ stroke-dashoffset: 0;}100%{ stroke-dashoffset: 0;}}@keyframes QHzMXOXz_draw_2{11.574074074074074%{stroke-dashoffset: 17}51.85185185185185%{ stroke-dashoffset: 0;}100%{ stroke-dashoffset: 0;}}@keyframes QHzMXOXz_draw_3{11.805555555555555%{stroke-dashoffset: 91}52.083333333333336%{ stroke-dashoffset: 0;}100%{ stroke-dashoffset: 0;}}@keyframes QHzMXOXz_draw_4{12.037037037037036%{stroke-dashoffset: 45}52.31481481481482%{ stroke-dashoffset: 0;}100%{ stroke-dashoffset: 0;}}@keyframes QHzMXOXz_draw_5{12.268518518518519%{stroke-dashoffset: 50}52.546296296296305%{ stroke-dashoffset: 0;}100%{ stroke-dashoffset: 0;}}@keyframes QHzMXOXz_draw_6{12.5%{stroke-dashoffset: 120}52.77777777777778%{ stroke-dashoffset: 0;}100%{ stroke-dashoffset: 0;}}</style></svg>
