<!--?xml version="1.0" encoding="UTF-8" standalone="no"?-->
<!-- Created with Inkscape (http://www.inkscape.org/) -->

  <svg xmlns="http://www.w3.org/2000/svg" version="1.1" x="0px" y="0px" viewBox="0 0 100 100" style="">
                  <path fill-opacity="0" stroke-width="1" stroke="#bbb" d="M81.495,13.923c-11.368-5.261-26.234-0.311-31.489,11.032C44.74,13.612,29.879,8.657,18.511,13.923  C6.402,19.539,0.613,33.883,10.175,50.804c6.792,12.04,18.826,21.111,39.831,37.379c20.993-16.268,33.033-25.344,39.819-37.379  C99.387,33.883,93.598,19.539,81.495,13.923z" class="WZLjRCdz_0"></path>
                  <path id="heart-path" fill-opacity="0" stroke-width="3" stroke="#ED6A5A" d="M81.495,13.923c-11.368-5.261-26.234-0.311-31.489,11.032C44.74,13.612,29.879,8.657,18.511,13.923  C6.402,19.539,0.613,33.883,10.175,50.804c6.792,12.04,18.826,21.111,39.831,37.379c20.993-16.268,33.033-25.344,39.819-37.379  C99.387,33.883,93.598,19.539,81.495,13.923z" class="WZLjRCdz_1"></path>
              <style>.WZLjRCdz_0{stroke-dasharray:270 272;stroke-dashoffset:271;animation:WZLjRCdz_draw 2000ms linear 0ms forwards;}.WZLjRCdz_1{stroke-dasharray:270 272;stroke-dashoffset:271;animation:WZLjRCdz_draw 2000ms linear 1000ms forwards;}@keyframes WZLjRCdz_draw{100%{stroke-dashoffset:0;}}@keyframes WZLjRCdz_fade{0%{stroke-opacity:1;}94.44444444444444%{stroke-opacity:1;}100%{stroke-opacity:0;}}</style></svg>